# xmcd
#
# Track frame offsets: 
#        150
#        11106
#        27386
#        49292
#        66242
#        84545
#        98351
#        115603
#        131362
#        147335
#        164959
#        188586
#
# Disc length: 2652 seconds
#
# Revision: 0
# Processed by: cddbd v1.5.2PL0 Copyright (c) Steve Scherf et al.
# Submitted via: ExactAudioCopyFreeDBPlugin 1.0
#
DISCID=a10a5a0c
DTITLE=Bluesferajna - Kolorowy świat
DYEAR=2011
DGENRE=Blues
TTITLE0=Czy to cię rusza
TTITLE1=Raz dwa trzy
TTITLE2=Wilcze doły
TTITLE3=Adhd
TTITLE4=Barman
TTITLE5=Proś o co chcesz
TTITLE6=Mój dom
TTITLE7=Jak na dryfie 
TTITLE8=Pomiędzy
TTITLE9=Stacyjka pana Józka
TTITLE10=Melancholia
TTITLE11=Wczorajszy blues
EXTD=
EXTT0=
EXTT1=
EXTT2=
EXTT3=
EXTT4=
EXTT5=
EXTT6=
EXTT7=
EXTT8=
EXTT9=
EXTT10=
EXTT11=
PLAYORDER=
